<svg width="20" height="20" viewBox="0 0 20 20" fill="none" xmlns="http://www.w3.org/2000/svg">
<path d="M10.0009 9.25015C9.80198 9.25015 9.61122 9.32917 9.47056 9.46982C9.32991 9.61047 9.25089 9.80124 9.25089 10.0001C9.25089 10.1991 9.32991 10.3898 9.47056 10.5305C9.61122 10.6711 9.80198 10.7501 10.0009 10.7501C10.1998 10.7501 10.3906 10.6711 10.5312 10.5305C10.6719 10.3898 10.7509 10.1991 10.7509 10.0001C10.7509 9.80124 10.6719 9.61047 10.5312 9.46982C10.3906 9.32917 10.1998 9.25015 10.0009 9.25015ZM7.00089 9.25015C6.80198 9.25015 6.61122 9.32917 6.47056 9.46982C6.32991 9.61047 6.25089 9.80124 6.25089 10.0001C6.25089 10.1991 6.32991 10.3898 6.47056 10.5305C6.61122 10.6711 6.80198 10.7501 7.00089 10.7501C7.19981 10.7501 7.39057 10.6711 7.53122 10.5305C7.67188 10.3898 7.75089 10.1991 7.75089 10.0001C7.75089 9.80124 7.67188 9.61047 7.53122 9.46982C7.39057 9.32917 7.19981 9.25015 7.00089 9.25015ZM13.0009 9.25015C12.802 9.25015 12.6112 9.32917 12.4706 9.46982C12.3299 9.61047 12.2509 9.80124 12.2509 10.0001C12.2509 10.1991 12.3299 10.3898 12.4706 10.5305C12.6112 10.6711 12.802 10.7501 13.0009 10.7501C13.1998 10.7501 13.3906 10.6711 13.5312 10.5305C13.6719 10.3898 13.7509 10.1991 13.7509 10.0001C13.7509 9.80124 13.6719 9.61047 13.5312 9.46982C13.3906 9.32917 13.1998 9.25015 13.0009 9.25015ZM17.4159 3.29015C13.7109 -0.804852 7.38589 -1.11985 3.29089 2.58415C-0.804105 6.28915 -1.11911 12.6141 2.58489 16.7091L0.146895 19.1461C0.0767878 19.2161 0.0290234 19.3052 0.00965666 19.4024C-0.00971012 19.4995 0.000192959 19.6001 0.0381105 19.6916C0.076028 19.7831 0.140252 19.8612 0.222641 19.9162C0.305031 19.9711 0.401874 20.0003 0.500895 20.0001H10.0009C12.4804 20 14.8714 19.0788 16.7099 17.4151C20.8059 13.7101 21.1219 7.38515 17.4159 3.29015ZM10.0009 19.0001H1.70789L3.63689 17.0711C3.73063 16.9774 3.78329 16.8502 3.78329 16.7176C3.78329 16.5851 3.73063 16.4579 3.63689 16.3641C2.37852 15.1057 1.52155 13.5023 1.17434 11.7569C0.827118 10.0114 1.00524 8.20216 1.68619 6.55791C2.36714 4.91366 3.52033 3.50824 4.99996 2.51933C6.47959 1.53042 8.21922 1.00245 9.99889 1.00215C12.3856 1.00188 14.6746 1.94973 16.3624 3.63719C18.0503 5.32464 18.9986 7.61346 18.9989 10.0001C18.9992 12.3868 18.0513 14.6759 16.3639 16.3637C14.6764 18.0515 12.3876 18.9999 10.0009 19.0001Z" fill="white"/>
</svg>
