<svg width="35" height="30" viewBox="0 0 35 30" fill="none" xmlns="http://www.w3.org/2000/svg">
<path d="M0 7.5C0 5.51088 0.658668 3.60322 1.83111 2.1967C3.00354 0.790176 4.59371 0 6.25179 0H16.2546C17.9127 0 19.5029 0.790176 20.6753 2.1967C21.8478 3.60322 22.5064 5.51088 22.5064 7.5V22.5C22.5064 24.4891 21.8478 26.3968 20.6753 27.8033C19.5029 29.2098 17.9127 30 16.2546 30H6.25179C4.59371 30 3.00354 29.2098 1.83111 27.8033C0.658668 26.3968 0 24.4891 0 22.5V7.5ZM30.0986 26.334L24.7571 21.912C24.7904 21.632 24.8071 21.349 24.8071 21.063V8.943C24.8071 8.655 24.7904 8.372 24.7571 8.094L30.0986 3.672C30.5676 3.28368 31.1162 3.05657 31.6851 3.01522C32.2539 2.97388 32.8213 3.11987 33.326 3.43742C33.8307 3.75497 34.2534 4.23198 34.5485 4.81689C34.8435 5.4018 34.9996 6.07234 35 6.756V23.25C34.9996 23.9337 34.8435 24.6042 34.5485 25.1891C34.2534 25.774 33.8307 26.251 33.326 26.5686C32.8213 26.8861 32.2539 27.0321 31.6851 26.9908C31.1162 26.9494 30.5676 26.7223 30.0986 26.334Z" fill="white"/>
</svg>
